<svg width="713" height="529" viewBox="0 0 713 529" fill="none" xmlns="http://www.w3.org/2000/svg">
<g clip-path="url(#clip0_103_247)">
<path d="M131.549 522.77H87.7071L72.1807 478.28H147.076L131.549 522.77Z" fill="#FF5873"/>
<path d="M79.282 514.142C80.0956 508.849 86.2165 505.99 90.5505 509.511C92.0332 510.716 92.9304 512.469 94.6716 513.374C96.1543 514.142 97.8613 514.249 99.4923 514.062C104.039 513.534 108.434 509.899 113.118 510.788C119.645 512.028 118.874 519.991 117.9 524.801C117.756 525.52 118.855 525.824 118.999 525.105C119.953 520.382 120.752 514.218 116.281 510.925C111.662 507.522 106.161 511.233 101.519 512.496C98.2415 513.389 95.3407 513.146 93.0369 510.473C91.5162 508.708 89.927 507.358 87.5661 506.933C83.0154 506.107 78.8677 509.351 78.1757 513.838C78.0655 514.557 79.1642 514.865 79.2744 514.142H79.282Z" fill="white"/>
<path d="M98.8234 528.326C103.948 519.154 113.262 513.458 122.733 509.556C133.397 505.164 144.832 502.883 156.359 502.769C157.093 502.761 157.093 501.62 156.359 501.628C144.452 501.742 132.629 504.145 121.657 508.781C112.194 512.777 102.975 518.557 97.8425 527.752C97.4851 528.394 98.4698 528.968 98.8272 528.326H98.8234Z" fill="white"/>
<path d="M74.3858 499.248C76.4805 500.989 78.9821 502.506 81.8182 502.149C83.9092 501.887 85.8519 500.594 86.3651 498.46C86.8556 496.422 85.9241 494.491 83.9966 493.669C80.8032 492.304 76.7733 492.091 73.3479 491.677C72.6217 491.589 72.6255 492.73 73.3479 492.817C75.6099 493.091 77.8606 493.437 80.0998 493.875C82.1756 494.281 85.3463 494.608 85.3539 497.365C85.3577 499.563 83.3351 500.955 81.2974 501.054C78.9631 501.168 76.9177 499.871 75.1917 498.438C74.6329 497.97 73.8193 498.776 74.3858 499.244V499.248Z" fill="white"/>
<path d="M657.274 343.669H526.112V422.382H657.274V343.669Z" fill="#FFE9E9"/>
<path d="M657.463 422.572H525.922V343.479H657.463V422.572ZM526.302 422.192H657.083V343.859H526.302V422.192Z" fill="white"/>
<path d="M127.66 161.168H64.2236V122.336H127.664V161.168H127.66ZM66.1207 159.267H125.759V124.238H66.1245V159.267H66.1207Z" fill="#FFDBDA"/>
<path d="M127.06 160.385H100.375V168.675H127.06V160.385Z" fill="#FFE9E9"/>
<path d="M127.249 168.869H100.185V160.199H127.249V168.869ZM100.565 168.488H126.869V160.579H100.565V168.488Z" fill="white"/>
<path d="M135.347 168.678V141.988H127.059V168.678H135.347Z" fill="#FFE9E9"/>
<path d="M135.537 168.869H126.869V141.798H135.537V168.869ZM127.249 168.488H135.157V142.178H127.249V168.488Z" fill="white"/>
<path d="M83.2065 250.506H56.2139V260.012H83.2065V250.506Z" fill="#FFE9E9"/>
<path d="M83.3962 260.203H56.0234V250.316H83.3962V260.203ZM56.4036 259.822H83.016V250.696H56.4036V259.822Z" fill="white"/>
<path d="M117.041 250.506H90.0488V260.012H117.041V250.506Z" fill="#00C8BC"/>
<path d="M530.458 12.8679H503.466V22.3743H530.458V12.8679Z" fill="#FFE9E9"/>
<path d="M530.648 22.5645H503.275V12.6778H530.648V22.5645ZM503.656 22.1842H530.268V13.058H503.656V22.1842Z" fill="white"/>
<path d="M564.293 12.8679H537.301V22.3743H564.293V12.8679Z" fill="#00C8BC"/>
<path d="M612.984 29.3863H465.095V86.0446H612.984V29.3863Z" fill="#FFE9E9"/>
<path d="M613.174 86.2348H464.904V29.1962H613.174V86.2348ZM465.284 85.8545H612.793V29.5764H465.284V85.8545Z" fill="white"/>
<path d="M175.969 92.3189L430.688 100.304L432.589 521.63L255.426 523.151L226.913 228.953L165.704 166.089L175.969 92.3189Z" fill="#FFE9E9"/>
<path d="M255.255 523.344L255.24 523.17L226.734 229.037L165.507 166.157L175.81 92.125H175.981L430.882 100.122V100.304L432.783 521.82H432.593L255.255 523.344ZM165.906 166.024L227.096 228.866L227.103 228.93L255.601 522.957L432.399 521.439L430.498 100.487L176.133 92.5128L165.906 166.02V166.024Z" fill="white"/>
<path d="M118.182 483.421L117.802 399.251L133.054 389.079L134.108 390.661L119.706 400.267L120.083 483.41L118.182 483.421Z" fill="#FFBE58"/>
<path d="M386.207 397.666L447.796 430.748V397.856L386.207 397.666Z" fill="#03015F"/>
<path d="M99.9476 376.846L98.0557 377.031L108.325 482.36L110.217 482.176L99.9476 376.846Z" fill="#FFBE58"/>
<path d="M80.5844 408.059L78.7422 408.528L97.891 483.832L99.7332 483.364L80.5844 408.059Z" fill="#FFBE58"/>
<path d="M71.5971 372.706L69.7549 373.175L76.9884 401.621L78.8306 401.152L71.5971 372.706Z" fill="#FFBE58"/>
<path d="M100.91 382.273C85.3419 383.193 71.6175 369.663 68.3289 351.183L84.726 339.867C84.726 339.867 67.9982 336.824 67.9678 336.691C70.169 319.481 81.696 306.081 96.3556 305.217C113.456 304.206 128.34 320.637 129.595 341.916C130.853 363.195 118.011 381.265 100.91 382.273Z" fill="#00C8BC"/>
<path d="M172.444 390.542C186.996 379.133 192.674 362.077 185.127 352.446C177.579 342.814 159.664 344.255 145.112 355.664C130.56 367.072 124.881 384.129 132.429 393.76C139.976 403.391 157.892 401.95 172.444 390.542Z" fill="#00C8BC"/>
<path d="M137.951 444.057L147.65 448.761C145.422 457.233 140.392 463.56 133.397 465.374C120.916 468.606 106.914 456.233 102.123 437.737C100.998 433.391 100.481 429.094 100.515 425.021L146.551 423.367C146.828 424.238 147.087 425.128 147.319 426.029C148.334 429.946 148.851 433.82 148.919 437.532L137.951 444.057Z" fill="#00C8BC"/>
<path d="M71.6713 372.766C70.9338 374.432 70.0365 376.044 68.9759 377.596C59.0152 392.133 38.4818 395.38 23.1112 384.847C7.74067 374.314 3.35722 353.989 13.3179 339.448C14.1467 338.235 15.0515 337.102 16.0247 336.049L71.6713 372.766Z" fill="#00C8BC"/>
<path d="M330.701 517.447C361.776 517.447 386.967 492.25 386.967 461.169C386.967 430.087 361.776 404.891 330.701 404.891C299.626 404.891 274.435 430.087 274.435 461.169C274.435 492.25 299.626 517.447 330.701 517.447Z" fill="white"/>
<path d="M330.701 414.777C343.091 414.777 354.736 419.603 363.499 428.364C372.258 437.125 377.082 448.776 377.082 461.169C377.082 473.561 372.258 485.208 363.499 493.973C354.739 502.735 343.091 507.56 330.701 507.56C318.311 507.56 306.666 502.735 297.903 493.973C289.144 485.212 284.319 473.561 284.319 461.169C284.319 448.776 289.144 437.129 297.903 428.364C306.662 419.603 318.311 414.777 330.701 414.777ZM330.701 404.891C299.625 404.891 274.435 430.086 274.435 461.169C274.435 492.251 299.625 517.447 330.701 517.447C361.777 517.447 386.967 492.251 386.967 461.169C386.967 430.086 361.777 404.891 330.701 404.891Z" fill="#FF5873"/>
<path d="M246.876 495.772L247.823 512.123H259.608L258.38 495.772H246.876Z" fill="#FEB2A8"/>
<path d="M214.181 495.772L215.127 512.123H226.913L225.685 495.772H214.181Z" fill="#FEB2A8"/>
<path d="M647.009 406.377H427.807V404.476H646.059V213.834H647.96V405.427C647.96 405.951 647.534 406.377 647.009 406.377Z" fill="#00C8BC"/>
<path d="M397.422 397.666H395.521V82.2078C395.521 81.6831 395.947 81.2572 396.472 81.2572H647.009C647.534 81.2572 647.959 81.6831 647.959 82.2078V188.144H646.058V83.1585H397.422V397.666Z" fill="#00C8BC"/>
<path d="M636.744 74.4468H386.207V397.666H636.744V74.4468Z" fill="#00C8BC"/>
<path d="M397.422 161.739H395.521V82.2078C395.521 81.6831 395.947 81.2572 396.472 81.2572H575.072V83.1585H397.422V161.739Z" fill="#03015F"/>
<path d="M397.422 173.314H395.521V397.666H397.422V173.314Z" fill="#03015F"/>
<path d="M509.385 229.592H226.913V313.248H509.385V229.592Z" fill="white"/>
<path d="M321.006 303.172H244.591V239.669H321.006V303.172ZM246.492 301.27H319.106V241.57H246.492V301.27Z" fill="#FFBE58"/>
<path d="M483.152 12.0846H173.308V134.908H483.152V12.0846Z" fill="#FFBE58"/>
<path d="M303.709 22.5417H201.821V124.451H303.709V22.5417Z" fill="white"/>
<path d="M483.152 134.908H163.043V141.752H483.152V134.908Z" fill="white"/>
<path d="M488.285 303.172H424.795V239.669H488.285V303.172ZM426.696 301.27H486.384V241.57H426.696V301.27Z" fill="#FFBE58"/>
<path d="M403.695 240.619H342.106V302.221H403.695V240.619Z" fill="#FF5873"/>
<path d="M302.84 271.422L282.799 251.377L262.758 271.422L282.799 291.467L302.84 271.422Z" fill="#00C8BC"/>
<path d="M618.496 124.641H523.451V376.751H618.496V124.641Z" fill="white"/>
<path d="M215.032 192.984L197.639 220.466L187.385 209.183L155.819 174.454L164.183 123.12L175.969 128.063L175.208 165.709L212.907 191.528L215.032 192.984Z" fill="#FF5873"/>
<path d="M215.032 192.984L197.639 220.466L187.386 209.183C195.347 198.183 206.752 193.407 212.907 191.528L215.032 192.984Z" fill="#03015F"/>
<path d="M162.971 130.558L175.836 134.778L175.969 126.162L164.183 121.979L162.971 130.558Z" fill="#03015F"/>
<path d="M76.9633 45.9123C77.9062 45.8933 78.8832 45.9959 79.7957 46.3534C80.7157 46.7032 81.5179 47.2926 82.2326 47.901C82.9473 48.5132 83.605 49.1445 84.3122 49.6312C85.0155 50.1217 85.7759 50.4488 86.578 50.5856C87.3764 50.7454 88.2432 50.6807 89.034 50.5438C89.8362 50.4031 90.5357 50.0495 91.1782 49.5666C91.8245 49.0836 92.4138 48.4486 93.0715 47.7717C93.7292 47.0987 94.4857 46.3762 95.44 45.84C96.3866 45.3001 97.4967 44.9807 98.5536 44.9274L98.9528 44.8932C99.0859 44.8856 99.2189 44.8932 99.3558 44.897C99.6257 44.9046 99.8918 44.9122 100.162 44.9274L100.979 45.0643C101.116 45.0833 101.253 45.1175 101.386 45.1632L101.789 45.2887C102.865 45.6423 103.823 46.2773 104.595 46.9238C105.374 47.574 106.02 48.2166 106.651 48.692C107.279 49.1749 107.872 49.5095 108.533 49.6578C108.693 49.7111 108.872 49.7149 109.039 49.7491C109.126 49.7605 109.206 49.7833 109.294 49.7871H109.567C109.75 49.7871 109.929 49.8137 110.107 49.7985L110.647 49.7453C111.347 49.6388 111.947 49.4259 112.514 49.0532C113.084 48.6844 113.635 48.1406 114.278 47.4789C114.916 46.8211 115.673 46.0416 116.68 45.4027C117.68 44.7525 118.893 44.3304 120.06 44.1707L120.931 44.0908C121.224 44.0718 121.516 44.0909 121.809 44.0985L122.25 44.1137C122.398 44.1251 122.55 44.1555 122.702 44.1783C123.003 44.2353 123.307 44.262 123.607 44.3532C124.831 44.6422 125.972 45.3153 126.843 45.9921C127.717 46.6842 128.39 47.3611 128.983 47.8478C129.568 48.3497 130.067 48.6425 130.58 48.8289L130.774 48.8973L130.869 48.9353L130.975 48.9543C131.12 48.9772 131.26 49.0076 131.401 49.0456C131.717 49.0494 132.032 49.1179 132.351 49.0836C133.013 49.0836 133.534 48.9658 134.062 48.7224C134.594 48.4904 135.153 48.0759 135.815 47.498C136.48 46.939 137.248 46.2089 138.248 45.5929C139.236 44.9807 140.461 44.5053 141.632 44.4255C142.799 44.3342 143.897 44.3913 145.023 44.7373C146.137 45.0643 147.175 45.6841 147.958 46.4104C148.752 47.1329 149.33 47.901 149.897 48.5741C150.455 49.2624 151.018 49.8518 151.714 50.3005C152.406 50.753 153.235 51.0305 154.128 51.2283V51.6846C153.185 51.8329 152.166 51.8291 151.166 51.5325C150.163 51.2511 149.265 50.6693 148.479 50.1027C147.695 49.5247 147.003 48.9543 146.323 48.5627C145.642 48.1672 144.996 47.9581 144.312 47.882C144.137 47.8744 143.973 47.844 143.795 47.8478L143.255 47.8744C143.076 47.8668 142.901 47.92 142.726 47.9429C142.555 47.9771 142.369 47.9809 142.217 48.0455C141.555 48.2052 141.05 48.5018 140.521 48.9239C139.997 49.3498 139.461 49.9354 138.795 50.6427C138.126 51.3348 137.282 52.1447 136.18 52.7645C135.632 53.0801 135.028 53.3045 134.42 53.4984C134.115 53.5707 133.807 53.6353 133.5 53.6962C133.192 53.757 132.899 53.7608 132.595 53.7912L132.142 53.8216C131.99 53.8292 131.842 53.814 131.69 53.8102C131.39 53.795 131.089 53.7798 130.785 53.757C130.162 53.6543 129.542 53.5402 128.937 53.3007C127.717 52.8596 126.668 52.0877 125.885 51.369C125.094 50.6389 124.508 49.962 123.961 49.4791C123.421 48.9848 122.961 48.6539 122.398 48.4638C122.265 48.3992 122.106 48.384 121.957 48.3383C121.881 48.3193 121.809 48.2927 121.729 48.2775L121.478 48.2509C121.311 48.2357 121.144 48.1976 120.976 48.1976H120.471C119.813 48.2433 119.228 48.3725 118.654 48.6844C118.076 48.9924 117.486 49.4943 116.806 50.1179C116.129 50.7339 115.335 51.4754 114.32 52.0572C113.308 52.6504 112.118 52.9889 110.989 53.0839L110.149 53.1144C109.868 53.1182 109.59 53.0801 109.313 53.0611L108.894 53.0231C108.754 53.0041 108.613 52.9661 108.472 52.9394C108.191 52.871 107.91 52.833 107.632 52.7303C106.507 52.3995 105.499 51.7302 104.712 51.042C103.922 50.3461 103.31 49.635 102.705 49.0684C102.104 48.4942 101.523 48.0645 100.861 47.7908L100.61 47.6919C100.531 47.6539 100.443 47.6234 100.352 47.6082L99.8158 47.4789L99.2417 47.4219C99.1467 47.4143 99.0517 47.3953 98.9528 47.3953L98.6639 47.4029C97.8769 47.3877 97.1584 47.5512 96.4817 47.8706C95.7973 48.1862 95.1548 48.6882 94.4781 49.2852C93.8052 49.8746 93.0867 50.5552 92.2123 51.1142C91.3455 51.6694 90.3114 52.0839 89.2811 52.1827C88.2584 52.2854 87.2433 52.2702 86.2473 51.9888C85.255 51.7302 84.3236 51.2245 83.5708 50.5933C82.8067 49.9658 82.1908 49.2585 81.5559 48.6159C80.9286 47.9733 80.2709 47.3915 79.4877 47.0074C78.7122 46.6196 77.8378 46.437 76.9443 46.3724V45.9161L76.9633 45.9123Z" fill="#00C8BC"/>
<path d="M152.999 68.4235C152.056 68.4425 151.079 68.3399 150.166 67.9824C149.246 67.6326 148.444 67.0432 147.729 66.4348C147.015 65.8226 146.357 65.1913 145.65 64.7046C144.946 64.2141 144.186 63.887 143.384 63.7502C142.586 63.5904 141.719 63.6551 140.928 63.792C140.126 63.9327 139.426 64.2863 138.784 64.7692C138.137 65.2522 137.548 65.8872 136.89 66.5641C136.233 67.2371 135.476 67.9596 134.522 68.4958C133.575 69.0357 132.465 69.3552 131.408 69.4084L131.009 69.4426C130.876 69.4502 130.743 69.4426 130.606 69.4388C130.336 69.4312 130.07 69.4236 129.8 69.4084L128.983 69.2715C128.846 69.2525 128.709 69.2183 128.576 69.1726L128.173 69.0471C127.097 68.6935 126.139 68.0585 125.367 67.412C124.588 66.7618 123.942 66.1192 123.311 65.6438C122.683 65.1609 122.09 64.8263 121.429 64.678C121.269 64.6248 121.09 64.621 120.923 64.5867C120.836 64.5753 120.756 64.5525 120.668 64.5487H120.395C120.212 64.5487 120.033 64.5221 119.855 64.5373L119.315 64.5905C118.615 64.697 118.015 64.9099 117.448 65.2826C116.878 65.6514 116.327 66.1952 115.684 66.8569C115.045 67.5147 114.289 68.2942 113.281 68.9331C112.282 69.5833 111.069 70.0054 109.902 70.1651L109.031 70.2488C108.738 70.2678 108.446 70.2488 108.153 70.2412L107.712 70.2259C107.564 70.2145 107.412 70.1841 107.259 70.1613C106.959 70.1043 106.655 70.0776 106.355 69.9864C105.13 69.6974 103.99 69.0243 103.119 68.3475C102.245 67.6554 101.572 66.9785 100.979 66.4918C100.393 65.9899 99.8954 65.6971 99.3822 65.5108L99.1883 65.4423L99.0932 65.4043L98.9868 65.3853C98.8423 65.3624 98.7017 65.332 98.561 65.294C98.2454 65.2902 97.9299 65.2218 97.6105 65.256C96.949 65.256 96.4282 65.3739 95.8997 65.6172C95.3675 65.8492 94.8086 66.2637 94.1471 66.8417C93.4818 67.4006 92.7139 68.1307 91.714 68.7467C90.7255 69.359 89.5014 69.8343 88.3304 69.9141C87.1633 70.0054 86.0646 69.9484 84.9392 69.6023C83.8253 69.2753 82.7874 68.6555 82.0043 67.9292C81.2097 67.2067 80.6318 66.4386 80.0654 65.7655C79.5065 65.0773 78.9438 64.4879 78.2481 64.0392C77.5562 63.5867 76.7274 63.3091 75.834 63.1113V62.655C76.7768 62.5067 77.7957 62.5105 78.7956 62.8071C79.7992 63.0885 80.6965 63.6703 81.4834 64.2369C82.2666 64.8149 82.9585 65.3853 83.639 65.7769C84.3195 66.1724 84.9658 66.3815 85.6502 66.4576C85.825 66.4652 85.9885 66.4956 86.1672 66.4918L86.7071 66.4652C86.8857 66.4728 87.0606 66.4196 87.2355 66.3968C87.4066 66.3625 87.5929 66.3587 87.7449 66.2941C88.4065 66.1344 88.9159 65.8378 89.4405 65.4157C89.9652 64.9898 90.5012 64.4042 91.1665 63.6969C91.8357 63.0049 92.6796 62.1949 93.7822 61.5751C94.3296 61.2595 94.9341 61.0351 95.5424 60.8412C95.8465 60.7689 96.1545 60.7043 96.4624 60.6435C96.7704 60.5826 97.0631 60.5788 97.3672 60.5484L97.8196 60.518C97.9717 60.5104 98.12 60.5256 98.2721 60.5294C98.5724 60.5446 98.8727 60.5598 99.1769 60.5826C99.8004 60.6853 100.42 60.7994 101.025 61.0389C102.245 61.48 103.294 62.2519 104.077 62.9706C104.868 63.7007 105.454 64.3776 106.001 64.8605C106.541 65.3548 107.001 65.6857 107.564 65.8758C107.697 65.9404 107.856 65.9557 108.005 66.0013C108.081 66.0203 108.153 66.0469 108.233 66.0621L108.484 66.0887C108.651 66.104 108.818 66.142 108.985 66.142H109.491C110.149 66.0963 110.734 65.9671 111.308 65.6553C111.886 65.3472 112.475 64.8453 113.156 64.2217C113.833 63.6057 114.627 62.8642 115.642 62.2824C116.654 61.6892 117.844 61.3507 118.973 61.2557L119.813 61.2252C120.094 61.2214 120.372 61.2595 120.649 61.2785L121.068 61.3165C121.208 61.3355 121.349 61.3736 121.489 61.4002C121.771 61.4686 122.052 61.5066 122.33 61.6093C123.455 61.9401 124.462 62.6094 125.249 63.2977C126.04 63.9935 126.652 64.7046 127.257 65.2712C127.857 65.8454 128.439 66.2751 129.101 66.5489L129.352 66.6477C129.431 66.6857 129.519 66.7162 129.61 66.7314L130.146 66.8607L130.72 66.9177C130.815 66.9253 130.91 66.9443 131.009 66.9443L131.298 66.9367C132.085 66.9519 132.804 66.7884 133.48 66.469C134.165 66.1534 134.807 65.6514 135.484 65.0544C136.157 64.465 136.875 63.7844 137.75 63.2254C138.616 62.6702 139.651 62.2558 140.681 62.1569C141.704 62.0542 142.719 62.0694 143.715 62.3508C144.707 62.6094 145.638 63.1151 146.391 63.7464C147.155 64.3738 147.771 65.0811 148.406 65.7237C149.033 66.3663 149.691 66.9481 150.474 67.3322C151.25 67.72 152.124 67.9026 153.018 67.971V68.4273L152.999 68.4235Z" fill="#FFBE58"/>
<path d="M538.993 442.901C539.788 442.874 540.62 443.03 541.342 443.433C542.069 443.829 542.662 444.407 543.186 444.977C543.707 445.551 544.186 446.133 544.707 446.605C545.224 447.08 545.783 447.422 546.384 447.574L546.84 447.662L547.315 447.669C547.471 447.688 547.627 447.639 547.783 447.624C547.939 447.605 548.094 447.59 548.231 447.529C548.813 447.369 549.307 447.05 549.752 446.571C550.204 446.099 550.611 445.51 551.071 444.882C551.535 444.259 552.052 443.574 552.797 442.985C552.995 442.848 553.185 442.703 553.394 442.578C553.615 442.468 553.835 442.357 554.063 442.251C554.531 442.091 555.014 441.947 555.493 441.92L555.854 441.882C555.975 441.874 556.097 441.886 556.215 441.89C556.458 441.905 556.702 441.901 556.945 441.943C557.192 441.992 557.439 442.049 557.682 442.11C557.922 442.186 558.158 442.293 558.39 442.392C559.31 442.833 560.017 443.498 560.587 444.106C561.157 444.722 561.625 445.312 562.085 445.772C562.537 446.24 562.959 446.529 563.378 446.666C563.476 446.723 563.594 446.723 563.701 446.749L563.864 446.787C563.921 446.795 563.986 446.787 564.047 446.787C564.168 446.783 564.29 446.806 564.408 446.791C564.529 446.772 564.647 446.753 564.765 446.742C565.21 446.639 565.556 446.456 565.936 446.11C566.316 445.768 566.708 445.255 567.156 444.646C567.609 444.034 568.13 443.316 568.905 442.631C569.084 442.456 569.308 442.296 569.536 442.141L569.875 441.909L570.255 441.715C570.513 441.589 570.768 441.456 571.046 441.388C571.319 441.312 571.601 441.209 571.871 441.175C572.144 441.137 572.418 441.106 572.692 441.08C572.966 441.057 573.243 441.087 573.521 441.095C573.661 441.106 573.798 441.106 573.939 441.125L574.368 441.213C574.654 441.277 574.943 441.334 575.212 441.456C576.334 441.863 577.239 442.608 577.878 443.266C578.516 443.939 579.003 444.551 579.429 445.011C579.847 445.483 580.2 445.753 580.467 445.886C580.539 445.909 580.6 445.951 580.668 445.977C580.744 445.985 580.813 446.008 580.885 446.034C580.961 446.053 581.063 446.046 581.147 446.061C581.238 446.084 581.326 446.076 581.417 446.069C581.801 446.057 582.025 446.023 582.36 445.814C582.702 445.616 583.12 445.213 583.603 444.677C584.097 444.152 584.641 443.487 585.409 442.84C585.614 442.68 585.819 442.525 586.029 442.372C586.264 442.228 586.504 442.091 586.743 441.958C586.994 441.836 587.268 441.737 587.53 441.642C587.793 441.54 588.078 441.509 588.348 441.452C588.625 441.388 588.891 441.384 589.154 441.38C589.42 441.38 589.682 441.353 589.944 441.407C590.207 441.445 590.465 441.486 590.72 441.532C590.978 441.604 591.237 441.696 591.488 441.783C592.503 442.186 593.305 442.901 593.849 443.601C594.408 444.304 594.784 445 595.16 445.628C595.522 446.263 595.894 446.814 596.366 447.263C596.833 447.711 597.449 448.023 598.175 448.213V448.67C597.776 448.723 597.358 448.791 596.928 448.734L596.601 448.704L596.286 448.62C596.073 448.563 595.852 448.51 595.655 448.407C594.826 448.061 594.145 447.483 593.548 446.947C592.959 446.399 592.434 445.871 591.925 445.491C591.416 445.107 590.952 444.909 590.511 444.852C590.397 444.848 590.287 444.837 590.176 444.825C590.055 444.84 589.933 444.852 589.815 444.859C589.697 444.852 589.583 444.905 589.469 444.924C589.355 444.947 589.241 444.966 589.154 445.019C588.766 445.179 588.492 445.384 588.146 445.791C587.804 446.186 587.428 446.738 586.968 447.392C586.496 448.035 585.922 448.803 585.036 449.502C584.801 449.67 584.565 449.837 584.314 449.989C584.044 450.126 583.77 450.259 583.493 450.381C582.922 450.578 582.322 450.734 581.755 450.765L581.322 450.799C581.177 450.807 581.033 450.788 580.888 450.784C580.6 450.761 580.314 450.753 580.022 450.7C579.725 450.635 579.429 450.559 579.136 450.476C578.847 450.377 578.569 450.24 578.292 450.115C577.205 449.548 576.444 448.742 575.878 448.065C575.311 447.373 574.905 446.753 574.528 446.297C574.159 445.825 573.87 445.567 573.578 445.407C573.509 445.346 573.422 445.335 573.342 445.3C573.3 445.285 573.258 445.266 573.22 445.247C573.175 445.232 573.121 445.232 573.072 445.224C572.969 445.213 572.871 445.175 572.764 445.175C572.661 445.175 572.555 445.175 572.449 445.175C572.061 445.209 571.734 445.297 571.331 445.582C570.935 445.867 570.494 446.342 570.008 446.917C569.514 447.495 568.947 448.179 568.156 448.806C567.373 449.438 566.301 449.924 565.244 450.046C564.986 450.065 564.723 450.08 564.465 450.088C564.206 450.096 563.948 450.05 563.693 450.027C563.564 450.012 563.438 450 563.309 449.978L562.921 449.875C562.663 449.799 562.404 449.738 562.165 449.609C561.169 449.183 560.393 448.464 559.838 447.806C559.279 447.137 558.853 446.494 558.431 445.958C558.013 445.422 557.61 445.008 557.177 444.749C557.063 444.696 556.956 444.627 556.842 444.578C556.721 444.544 556.599 444.506 556.477 444.46C556.352 444.426 556.211 444.426 556.074 444.399C556.006 444.392 555.937 444.373 555.869 444.373L555.664 444.38C555.101 444.38 554.614 444.506 554.132 444.829C553.645 445.141 553.17 445.624 552.679 446.179C552.185 446.73 551.672 447.358 551.014 447.928C550.372 448.506 549.497 448.981 548.592 449.133C548.368 449.194 548.144 449.202 547.92 449.21C547.695 449.21 547.475 449.248 547.25 449.206L546.589 449.122C546.372 449.065 546.156 448.997 545.943 448.932C545.091 448.624 544.384 448.05 543.844 447.441C543.297 446.829 542.871 446.183 542.43 445.586C541.993 444.989 541.533 444.433 540.962 444.034C540.396 443.631 539.711 443.414 538.985 443.354V442.897L538.993 442.901Z" fill="#00C8BC"/>
<path d="M597.312 465.412C596.518 465.439 595.685 465.283 594.963 464.88C594.236 464.484 593.643 463.906 593.119 463.336C592.598 462.762 592.119 462.18 591.598 461.709C591.081 461.233 590.522 460.891 589.921 460.739L589.465 460.651L588.99 460.644C588.834 460.625 588.678 460.674 588.522 460.689C588.367 460.709 588.211 460.724 588.074 460.781C587.492 460.94 586.998 461.26 586.553 461.739C586.101 462.211 585.694 462.8 585.234 463.427C584.77 464.051 584.253 464.735 583.508 465.325C583.31 465.462 583.12 465.606 582.911 465.732C582.69 465.842 582.47 465.952 582.242 466.059C581.774 466.218 581.291 466.363 580.812 466.39L580.451 466.428C580.33 466.435 580.208 466.424 580.09 466.42C579.847 466.405 579.603 466.409 579.36 466.367C579.113 466.317 578.866 466.26 578.623 466.199C578.383 466.123 578.147 466.017 577.915 465.918C576.995 465.477 576.288 464.811 575.718 464.203C575.148 463.587 574.68 462.998 574.22 462.538C573.768 462.07 573.346 461.781 572.928 461.644C572.829 461.587 572.711 461.587 572.604 461.56L572.441 461.522C572.384 461.515 572.319 461.522 572.258 461.522C572.137 461.526 572.015 461.503 571.897 461.522C571.776 461.541 571.658 461.56 571.54 461.572C571.095 461.674 570.749 461.857 570.369 462.203C569.989 462.545 569.597 463.058 569.149 463.667C568.696 464.279 568.175 464.998 567.4 465.682C567.221 465.857 566.997 466.017 566.769 466.173L566.43 466.405L566.05 466.599C565.792 466.724 565.537 466.857 565.259 466.926C564.986 467.002 564.704 467.104 564.434 467.139C564.161 467.177 563.887 467.207 563.613 467.234C563.339 467.257 563.062 467.226 562.784 467.218C562.644 467.207 562.507 467.207 562.366 467.188L561.937 467.101C561.651 467.036 561.363 466.979 561.093 466.857C559.971 466.45 559.066 465.705 558.428 465.047C557.789 464.374 557.302 463.762 556.876 463.302C556.458 462.83 556.105 462.56 555.839 462.427C555.766 462.404 555.706 462.363 555.637 462.336C555.561 462.328 555.493 462.306 555.42 462.279C555.344 462.26 555.242 462.268 555.158 462.252C555.067 462.23 554.979 462.237 554.888 462.245C554.504 462.256 554.28 462.29 553.945 462.5C553.603 462.697 553.185 463.1 552.702 463.636C552.208 464.161 551.664 464.827 550.896 465.473C550.691 465.633 550.486 465.789 550.277 465.941C550.041 466.085 549.801 466.222 549.562 466.355C549.311 466.477 549.037 466.576 548.775 466.671C548.513 466.774 548.227 466.804 547.957 466.861C547.68 466.926 547.414 466.929 547.151 466.933C546.885 466.933 546.623 466.96 546.361 466.907C546.098 466.869 545.84 466.827 545.585 466.781C545.327 466.709 545.068 466.618 544.817 466.53C543.802 466.127 543 465.412 542.456 464.713C541.897 464.009 541.521 463.313 541.145 462.686C540.784 462.051 540.411 461.499 539.94 461.051C539.472 460.598 538.856 460.29 538.13 460.1V459.644C538.529 459.591 538.947 459.522 539.377 459.579L539.704 459.61L540.019 459.693C540.232 459.75 540.453 459.803 540.65 459.906C541.479 460.252 542.16 460.83 542.757 461.366C543.346 461.914 543.871 462.442 544.38 462.823C544.889 463.207 545.353 463.405 545.794 463.462C545.912 463.465 546.019 463.477 546.129 463.488C546.25 463.473 546.372 463.462 546.49 463.454C546.608 463.462 546.722 463.408 546.836 463.389C546.95 463.366 547.064 463.347 547.151 463.294C547.539 463.135 547.813 462.929 548.159 462.522C548.501 462.127 548.877 461.575 549.338 460.921C549.809 460.279 550.383 459.511 551.269 458.811C551.505 458.644 551.74 458.476 551.991 458.324C552.261 458.187 552.535 458.054 552.812 457.933C553.383 457.735 553.983 457.579 554.55 457.549L554.983 457.514C555.128 457.507 555.272 457.526 555.417 457.53C555.705 457.552 555.991 457.56 556.283 457.613C556.58 457.678 556.876 457.754 557.169 457.838C557.458 457.936 557.736 458.073 558.013 458.199C559.1 458.765 559.861 459.572 560.427 460.248C560.994 460.94 561.401 461.56 561.777 462.017C562.146 462.488 562.435 462.747 562.727 462.906C562.796 462.967 562.883 462.979 562.963 463.013C563.005 463.028 563.047 463.047 563.085 463.066C563.13 463.081 563.184 463.081 563.233 463.089C563.336 463.1 563.435 463.138 563.541 463.138C563.644 463.138 563.75 463.138 563.857 463.138C564.244 463.104 564.571 463.017 564.974 462.731C565.37 462.446 565.811 461.971 566.297 461.397C566.791 460.819 567.358 460.134 568.149 459.507C568.932 458.876 570.004 458.389 571.061 458.267C571.319 458.248 571.582 458.233 571.84 458.225C572.099 458.218 572.357 458.263 572.612 458.286C572.741 458.301 572.867 458.313 572.996 458.336L573.384 458.438C573.642 458.514 573.901 458.575 574.14 458.705C575.136 459.13 575.912 459.849 576.467 460.507C577.026 461.176 577.452 461.819 577.874 462.355C578.292 462.891 578.695 463.306 579.128 463.564C579.242 463.617 579.349 463.686 579.463 463.735C579.584 463.77 579.706 463.808 579.828 463.853C579.953 463.887 580.094 463.887 580.231 463.914C580.299 463.922 580.368 463.941 580.436 463.941L580.641 463.933C581.204 463.933 581.691 463.808 582.173 463.484C582.66 463.173 583.135 462.69 583.626 462.134C584.12 461.583 584.633 460.956 585.291 460.385C585.933 459.807 586.808 459.332 587.713 459.18C587.937 459.119 588.161 459.111 588.386 459.104C588.61 459.104 588.83 459.066 589.055 459.108L589.716 459.191C589.933 459.248 590.15 459.317 590.362 459.381C591.214 459.689 591.921 460.264 592.461 460.872C593.009 461.484 593.434 462.131 593.875 462.728C594.313 463.325 594.773 463.88 595.343 464.279C595.909 464.682 596.594 464.899 597.32 464.96V465.416L597.312 465.412Z" fill="#FF5873"/>
<path d="M612.793 109.05C634.839 109.05 652.711 91.1743 652.711 69.1232C652.711 47.0721 634.839 29.1962 612.793 29.1962C590.746 29.1962 572.874 47.0721 572.874 69.1232C572.874 91.1743 590.746 109.05 612.793 109.05Z" fill="white"/>
<path d="M652.712 69.1232C652.712 69.6327 652.7 70.1423 652.681 70.6442H612.793V29.1962C634.839 29.1962 652.712 47.0721 652.712 69.1232Z" fill="#03015F"/>
<path d="M658.414 61.8983C658.414 62.4078 658.402 62.9174 658.383 63.4193H618.495V21.9713C640.542 21.9713 658.414 39.8472 658.414 61.8983Z" fill="#FFBE58"/>
<path d="M664.718 58.8562H624.829C624.305 58.8562 623.879 58.4304 623.879 57.9056V40.5659H625.78V56.955H663.794C663.794 56.761 663.798 56.5709 663.798 56.3846C663.798 35.2118 646.83 17.9253 625.78 17.4196V31.0442H623.879V16.4575C623.879 15.9328 624.305 15.5069 624.829 15.5069C647.366 15.5069 665.698 33.8429 665.698 56.3846C665.698 56.8789 665.687 57.3846 665.668 57.9398C665.649 58.4494 665.231 58.8562 664.718 58.8562Z" fill="#FF5873"/>
<path d="M483.152 74.4468H514.247L483.152 39.8434V74.4468Z" fill="white"/>
<path d="M208.664 292.715V297.658L201.061 320.093L212.846 504.898H228.053L236.417 338.726V292.715H208.664Z" fill="#FFBE58"/>
<path d="M215.127 339.486L235.824 429.417L231.094 339.486H215.127Z" fill="#03015F"/>
<path d="M244.781 504.898H262.269L254.665 292.715H229.194L215.127 339.486L226.912 354.316L244.781 504.898Z" fill="#FFBE58"/>
<path d="M225.292 82.6955L226.766 81.222L145.559 -0.00203253L144.085 1.47145L225.292 82.6955Z" fill="white"/>
<path d="M225.294 97.9189L226.768 96.4454L145.561 15.2214L144.087 16.6948L225.294 97.9189Z" fill="white"/>
<path d="M713 522.059H553.253V525.101H713V522.059Z" fill="#03015F"/>
<path d="M526.112 522.128H495.576V525.17H526.112V522.128Z" fill="#FFBE58"/>
<path d="M482.791 522.196H299.146V525.238H482.791V522.196Z" fill="#03015F"/>
<path d="M189.086 522.352H55.4531V525.394H189.086V522.352Z" fill="#03015F"/>
<path d="M247.762 511.074H259.529L263.79 516.306L281.278 517.827L283.56 519.728L283.94 522.77L247.062 523.151L247.762 511.074Z" fill="#03015F"/>
<path d="M214.899 510.161C214.747 510.222 226.913 510.161 226.913 510.161L229.194 522.77H205.623L207.144 518.588L214.367 512.884L214.899 510.161Z" fill="#03015F"/>
<path d="M147.456 478.28H70.6602V488.927H147.456V478.28Z" fill="#FFBE58"/>
<path d="M75.8984 488.927L140.821 496.209L143.361 488.927H75.8984Z" fill="#03015F"/>
<path d="M594.355 194.228H547.593V361.161H594.355V194.228Z" fill="#FF5873"/>
<path d="M570.973 145.144L529.173 199.205H612.774L570.973 145.144Z" fill="#FF5873"/>
<path d="M245.72 116.663C235.588 115.02 226.304 109.803 219.582 101.974C212.785 94.0567 209.044 83.9456 209.044 73.5C209.044 59.5901 215.435 46.8249 226.582 38.4782L231.824 45.4788C222.905 52.1599 217.792 62.3736 217.792 73.5C217.792 81.858 220.784 89.9461 226.22 96.2774C231.6 102.544 239.021 106.715 247.123 108.031L245.723 116.663H245.72Z" fill="#00C8BC"/>
<path d="M255.635 117.134L255.068 108.408C269.26 107.487 281.369 98.1749 285.916 84.6833L294.2 87.4782C291.455 95.6195 286.406 102.727 279.594 108.027C272.671 113.419 264.383 116.568 255.635 117.134Z" fill="#00C8BC"/>
<path d="M296.185 78.6562L287.502 77.6334C287.661 76.272 287.745 74.8803 287.745 73.4961C287.745 54.2057 272.055 38.5125 252.769 38.5125C248.921 38.5125 245.142 39.1323 241.538 40.3529L238.732 32.0709C243.241 30.5423 247.967 29.7665 252.769 29.7665C276.876 29.7665 296.489 49.384 296.489 73.4961C296.489 75.2187 296.386 76.9565 296.189 78.6562H296.185Z" fill="#00C8BC"/>
<path d="M249.252 117.089C238.325 116.218 228.19 111.298 220.708 103.236C213.188 95.129 209.044 84.5654 209.044 73.5C209.044 65.8226 211.063 58.2707 214.88 51.6618C218.579 45.2506 223.89 39.8434 230.227 36.0218L234.74 43.5129C224.126 49.9126 217.788 61.1226 217.788 73.5C217.788 82.3524 221.103 90.8017 227.118 97.2889C233.102 103.742 241.211 107.677 249.943 108.373L249.248 117.093L249.252 117.089Z" fill="#FFBE58"/>
<path d="M295.949 80.356L287.312 78.9947C287.452 78.1011 287.559 77.1885 287.631 76.2796L296.348 76.9641C296.261 78.1011 296.124 79.2419 295.949 80.3598V80.356Z" fill="#FF5873"/>
<path d="M296.352 76.9603L287.635 76.2758C287.707 75.3556 287.745 74.4202 287.745 73.4962C287.745 54.2057 272.055 38.5125 252.769 38.5125C248.043 38.5125 243.466 39.4365 239.154 41.2617L235.748 33.2079C241.139 30.9263 246.868 29.7704 252.769 29.7704C276.876 29.7704 296.489 49.3878 296.489 73.5C296.489 74.6521 296.443 75.8195 296.352 76.9641V76.9603Z" fill="#FF5873"/>
<path d="M351.04 43.646H326.709V67.9824H351.04V43.646Z" fill="white"/>
<path d="M351.04 79.0099H326.709V103.346H351.04V79.0099Z" fill="white"/>
<path d="M458.821 31.4777H363.396V42.8854H458.821V31.4777Z" fill="white"/>
<path d="M405.976 51.6314H363.396V60.7575H405.976V51.6314Z" fill="#FF5873"/>
<path d="M430.688 88.8966H363.396V100.304H430.688V88.8966Z" fill="white"/>
<path d="M390.769 109.05H363.396V118.176H390.769V109.05Z" fill="white"/>
<path d="M412.439 109.05H398.753V118.176H412.439V109.05Z" fill="#FF5873"/>
<path d="M435.63 458.887H324.238V479.801H435.63V458.887Z" fill="#FF5873"/>
<path d="M445.515 479.801H334.123V500.715H445.515V479.801Z" fill="#FF5873"/>
<path d="M432.588 500.715H321.196V521.629H432.588V500.715Z" fill="#FF5873"/>
<path d="M389.439 458.887H370.43V479.801H389.439V458.887Z" fill="#FFBE58"/>
<path d="M417.001 479.801H397.992V500.715H417.001V479.801Z" fill="#FFBE58"/>
<path d="M372.372 500.715H353.363V521.629H372.372V500.715Z" fill="#FFBE58"/>
<path d="M683.127 131.867L674.764 123.502L666.4 131.867L674.764 140.232L683.127 131.867Z" fill="#FFBE58"/>
<path d="M123.124 121.983L114.761 113.618L106.398 121.983L114.761 130.348L123.124 121.983Z" fill="#FFBE58"/>
<path d="M328.945 156.685L330.906 152.251L344.768 145.935L355.777 134.908H337.164L326.139 140.992L321.197 134.908H316.87L319.676 146.696L318.589 153.768L328.945 156.685Z" fill="#FEB2A8"/>
<path d="M174.281 125.565L178.63 123.124L182.432 111.336C182.432 111.336 178.25 111.716 176.349 115.518L173.307 117.789V97.7414L167.225 107.153L166.084 117.039L167.369 123.124L174.281 125.565Z" fill="#FEB2A8"/>
<path d="M500.739 150.118H489.334V216.283H500.739V150.118Z" fill="white"/>
<path d="M486.293 188.144H474.888V216.283H486.293V188.144Z" fill="white"/>
<path d="M471.846 175.595H460.44V216.283H471.846V175.595Z" fill="#FF5873"/>
<path d="M457.399 195.749H445.994V216.283H457.399V195.749Z" fill="white"/>
<path d="M442.952 173.314H431.547V216.283H442.952V173.314Z" fill="white"/>
<path d="M428.506 194.608H417.101V216.283H428.506V194.608Z" fill="#FF5873"/>
<path d="M403.695 376.751L511.666 375.991V333.022C511.666 333.022 493.797 333.022 482.772 350.133C471.747 367.245 455.78 359.26 455.78 359.26C455.78 359.26 425.746 342.148 403.695 376.751Z" fill="#FFBE58"/>
<path d="M667.923 266.72L668.06 266.56C668.523 266.02 669.329 265.944 669.892 266.382C671.633 267.732 673.793 268.572 676.112 268.572C679.476 268.572 681.419 266.964 681.419 264.72C681.419 262.104 679.514 261.355 677.047 260.309L673.496 258.739C671.067 257.765 668.227 256.046 668.227 252.419C668.227 248.791 671.591 245.912 676.264 245.912C678.788 245.912 681.058 246.749 682.784 248.046C683.385 248.498 683.472 249.365 682.997 249.947C682.552 250.491 681.769 250.59 681.191 250.194C679.803 249.24 678.195 248.681 676.15 248.681C673.31 248.681 671.401 250.027 671.401 252.232C671.401 254.586 673.682 255.449 675.773 256.271L679.214 257.803C682.24 259.001 684.635 260.72 684.635 264.347C684.635 268.237 681.347 271.34 675.963 271.34C672.903 271.34 670.192 270.306 668.094 268.633C667.505 268.161 667.429 267.291 667.923 266.72Z" fill="#FF5873"/>
<path d="M678.381 270.12L676.689 276.69L674.583 270.241L678.381 270.12Z" fill="#FF5873"/>
<path d="M675.549 240.566L677.651 247.004L673.854 247.126L675.549 240.566Z" fill="#FF5873"/>
<path d="M100.697 216.146L100.834 215.986C101.298 215.446 102.104 215.37 102.666 215.808C104.408 217.157 106.567 217.998 108.886 217.998C112.251 217.998 114.193 216.389 114.193 214.146C114.193 211.53 112.289 210.781 109.821 209.735L106.271 208.164C103.841 207.191 101.001 205.472 101.001 201.844C101.001 198.217 104.366 195.338 109.038 195.338C111.563 195.338 113.832 196.175 115.558 197.471C116.159 197.924 116.246 198.791 115.771 199.373C115.326 199.917 114.543 200.015 113.965 199.62C112.578 198.666 110.97 198.107 108.924 198.107C106.084 198.107 104.176 199.453 104.176 201.658C104.176 204.012 106.457 204.875 108.548 205.696L111.988 207.229C115.015 208.427 117.41 210.145 117.41 213.773C117.41 217.663 114.121 220.766 108.738 220.766C105.677 220.766 102.967 219.732 100.868 218.059C100.279 217.587 100.203 216.716 100.697 216.146Z" fill="#FF5873"/>
<path d="M111.156 219.545L109.461 226.116L107.358 219.667L111.156 219.545Z" fill="#FF5873"/>
<path d="M108.32 189.992L110.426 196.43L106.628 196.551L108.32 189.992Z" fill="#FF5873"/>
<path d="M594.317 335.425C586.496 332.394 577.904 328.569 575.357 319.8C574.277 316.085 574.289 311.686 576.521 308.377C578.881 304.875 583.387 303.822 586.063 300.609C590.272 295.555 591.382 287.231 585.481 283.018C582.28 280.733 578.056 280.003 574.27 279.337C569.495 278.501 564.659 278.135 559.831 277.778C557.2 277.584 554.569 277.394 551.946 277.128C549.361 276.865 546.566 276.736 544.084 275.9C539.784 274.451 535.959 270.393 538.012 265.678C538.301 265.013 537.32 264.431 537.028 265.104C535.689 268.177 536.218 271.245 538.518 273.702C540.94 276.287 544.11 277.257 547.505 277.74C558.063 279.238 568.894 278.847 579.262 281.596C583.265 282.657 587.344 284.657 588.279 289.094C589.275 293.813 586.782 299.198 582.942 301.951C579.752 304.24 576.254 305.716 574.601 309.533C573.167 312.842 573.27 316.69 574.258 320.104C576.912 329.295 585.801 333.345 594.012 336.528C594.697 336.794 594.993 335.691 594.317 335.429V335.425Z" fill="white"/>
<path d="M581.591 365.8C583.975 362.819 586.659 359.336 586.633 355.32C586.614 352.194 584.793 349.574 582.131 348.053C579.307 346.437 575.885 345.97 572.68 346.262C569.015 346.597 563.031 348.019 561.374 343.445C559.822 339.163 563.069 334.676 564.814 330.991C566.316 327.831 567.145 324.542 566.247 321.074C564.51 314.37 557.739 309.408 550.915 309.21C542.235 308.959 534.632 314.827 530.142 321.835C529.743 322.454 530.731 323.029 531.127 322.409C535.16 316.119 541.772 310.762 549.501 310.362C556.629 309.997 564.153 315.089 565.365 322.378C566.601 329.786 558.838 335.178 559.986 342.505C561.111 349.688 569.186 347.388 574.163 347.312C577.828 347.255 582.291 348.35 584.412 351.624C587.397 356.229 583.648 361.412 580.789 364.986C580.337 365.553 581.139 366.367 581.595 365.792L581.591 365.8Z" fill="white"/>
<path d="M599.19 227.462C575.242 243.35 554.69 265.652 546.695 293.81C544.437 301.757 543.285 309.99 543.349 318.253C543.357 318.987 544.497 318.987 544.49 318.253C544.262 289.011 559.609 262.362 580.801 243.11C586.724 237.729 593.099 232.87 599.768 228.447C600.376 228.044 599.806 227.056 599.194 227.462H599.19Z" fill="white"/>
<path d="M570.023 256.4C571.703 256.4 573.064 255.038 573.064 253.358C573.064 251.678 571.703 250.316 570.023 250.316C568.343 250.316 566.981 251.678 566.981 253.358C566.981 255.038 568.343 256.4 570.023 256.4Z" fill="white"/>
<path d="M93.852 322.504L92.7178 322.623L98.0409 373.196L99.1752 373.076L93.852 322.504Z" fill="white"/>
<path d="M127.869 322.162L95.8438 350.223L96.5953 351.081L128.62 323.02L127.869 322.162Z" fill="white"/>
<path d="M128.199 326.825L96.1787 354.892L96.9304 355.75L128.951 327.683L128.199 326.825Z" fill="white"/>
<path d="M188.767 352.904L135.537 387.877L136.163 388.831L189.394 353.857L188.767 352.904Z" fill="white"/>
<path d="M156.943 374.045L156.619 375.139L182.461 382.805L182.785 381.711L156.943 374.045Z" fill="white"/>
<path d="M153.444 376.711L153.121 377.805L181.624 386.233L181.947 385.139L153.444 376.711Z" fill="white"/>
<path d="M44.0391 349.405L0.0126953 366.547L0.426439 367.61L44.4528 350.468L44.0391 349.405Z" fill="white"/>
<path d="M44.0372 346.158L0.0107422 363.3L0.424486 364.363L44.4509 347.221L44.0372 346.158Z" fill="white"/>
<path d="M50.5112 353.72L48.2334 376.914L49.3685 377.026L51.6463 353.832L50.5112 353.72Z" fill="white"/>
<path d="M29.7911 395.764C25.9133 395.764 22.7578 392.608 22.7578 388.73C22.7578 384.851 25.9133 381.695 29.7911 381.695C33.6689 381.695 36.8244 384.851 36.8244 388.73C36.8244 392.608 33.6689 395.764 29.7911 395.764ZM29.7911 382.836C26.5406 382.836 23.8983 385.478 23.8983 388.73C23.8983 391.981 26.5406 394.624 29.7911 394.624C33.0416 394.624 35.6838 391.981 35.6838 388.73C35.6838 385.478 33.0416 382.836 29.7911 382.836Z" fill="white"/>
<path d="M112.289 317.431C108.411 317.431 105.256 314.275 105.256 310.397C105.256 306.518 108.411 303.362 112.289 303.362C116.167 303.362 119.322 306.518 119.322 310.397C119.322 314.275 116.167 317.431 112.289 317.431ZM112.289 304.503C109.039 304.503 106.396 307.145 106.396 310.397C106.396 313.648 109.039 316.291 112.289 316.291C115.54 316.291 118.182 313.648 118.182 310.397C118.182 307.145 115.54 304.503 112.289 304.503Z" fill="white"/>
<path d="M142.323 368.766C138.446 368.766 135.29 365.61 135.29 361.731C135.29 357.853 138.446 354.697 142.323 354.697C146.201 354.697 149.357 357.853 149.357 361.731C149.357 365.61 146.201 368.766 142.323 368.766ZM142.323 355.837C139.073 355.837 136.431 358.48 136.431 361.731C136.431 364.982 139.073 367.625 142.323 367.625C145.574 367.625 148.216 364.982 148.216 361.731C148.216 358.48 145.574 355.837 142.323 355.837Z" fill="white"/>
<path d="M123.111 422.493L121.983 422.662L127.305 458.027L128.433 457.857L123.111 422.493Z" fill="white"/>
<path d="M123.187 428.363L101.519 440.911L102.09 441.899L123.759 429.35L123.187 428.363Z" fill="white"/>
<path d="M123.557 431.588L101.889 444.137L102.46 445.124L124.129 432.575L123.557 431.588Z" fill="white"/>
<path d="M215.249 339.391C217.371 341.737 219.454 344.114 221.526 346.502L224.621 350.092C225.651 351.289 226.681 352.487 227.696 353.696L227.86 353.89L227.905 354.198C228.377 357.324 228.844 360.45 229.282 363.579L229.947 368.272L230.582 372.968C231.449 379.227 232.224 385.497 232.939 391.775L236.954 429.474L241.002 467.169L244.93 504.879L244.629 504.913L239.622 467.333L234.737 429.737L229.818 392.144C229.042 385.874 228.331 379.596 227.708 373.306L227.225 368.591L226.776 363.872C226.468 360.727 226.191 357.579 225.921 354.43L226.13 354.932C225.183 353.67 224.248 352.396 223.313 351.122L220.515 347.297C218.659 344.738 216.812 342.171 215.006 339.577L215.245 339.387L215.249 339.391Z" fill="white"/>
<path d="M239.838 181.679V194.608L222.73 193.087L223.491 173.314L239.838 181.679Z" fill="#FEB2A8"/>
<path d="M237.854 144.08C237.854 144.08 241.234 153.943 252.168 155.012C252.422 155.039 252.552 155.331 252.396 155.533L248.583 160.385L246.302 169.131L242.5 179.398L227.673 167.99C227.673 167.99 217.788 154.681 218.549 154.301C219.309 153.921 237.854 144.08 237.854 144.08Z" fill="#FEB2A8"/>
<path d="M226.152 154.681L239.838 142.893C239.838 142.893 246.176 136.843 242.553 128.257C240.481 123.34 234.562 121.215 229.984 123.956C229.216 124.416 228.441 125.013 227.673 125.782C221.59 131.866 220.83 133.767 215.127 134.908C210.28 135.877 206.383 141.752 206.763 145.555C207.143 149.358 210.945 154.301 215.127 154.301C215.127 154.301 210.185 156.582 210.945 163.047C211.705 169.511 219.309 169.891 220.83 171.793C222.35 173.694 222.73 177.877 222.73 177.877C222.73 177.877 222.73 181.299 226.912 180.919C231.094 180.539 231.094 177.116 231.094 177.116C231.094 177.116 239.078 191.566 250.103 187.003C255.642 184.71 257.437 181.364 257.855 178.599C258.201 176.306 257.524 173.979 256.095 172.158C253.966 169.443 249.708 163.765 248.582 160.385C248.582 160.385 240.219 162.286 241.359 171.793C241.359 171.793 232.995 166.089 226.152 154.681Z" fill="#03015F"/>
<path d="M220.449 190.292V183.524L243.26 188.847V192.27L220.449 190.292Z" fill="#FFBE58"/>
<path d="M220.45 189.665C220.45 189.665 206.003 191.566 197.259 210.199C188.515 228.831 208.664 292.715 208.664 292.715H254.666L269.493 228.071L309.461 220.466L327.66 164.188L314.734 160.385L293.676 200.894L243.204 191.501C242.227 191.292 241.238 191.152 240.242 191.083L220.446 189.669L220.45 189.665Z" fill="#FF5873"/>
<path d="M313.859 161.952L326.995 166.245L329.941 156.963L317.775 153.54L313.859 161.952Z" fill="#03015F"/>
<path d="M225.392 160.385L227.51 167.047C227.51 167.047 222.351 169.131 220.45 164.948C218.549 160.765 222.351 158.864 225.392 160.385Z" fill="#FEB2A8"/>
<path d="M269.492 228.071L252.765 231.493L262.269 259.564L269.492 228.071Z" fill="#03015F"/>
<path d="M208.664 297.658H254.844L254.666 292.715H208.664V297.658Z" fill="#03015F"/>
<path d="M220.07 291.954H218.169V298.799H220.07V291.954Z" fill="#FFBE58"/>
<path d="M240.599 291.954H238.698V298.799H240.599V291.954Z" fill="#FFBE58"/>
<path d="M248.776 236.516C248.978 235.676 249.194 234.843 249.419 234.014L249.769 232.775C249.883 232.36 250.012 231.949 250.13 231.539L250.221 231.231L250.651 231.105C253.053 230.409 255.471 229.801 257.893 229.204L261.535 228.36C262.752 228.097 263.968 227.835 265.192 227.603C267.637 227.128 270.1 226.748 272.56 226.36L279.932 225.147L294.671 222.683C299.591 221.899 304.506 221.085 309.434 220.333L309.483 220.595C304.632 221.732 299.766 222.804 294.907 223.911L280.308 227.113L273.013 228.732C270.583 229.288 268.158 229.854 265.713 230.322C264.493 230.562 263.265 230.771 262.037 230.98L258.345 231.554C255.878 231.904 253.407 232.238 250.917 232.486L251.438 232.052C251.244 232.436 251.057 232.82 250.856 233.201L250.263 234.345C249.86 235.106 249.449 235.862 249.02 236.611L248.772 236.513L248.776 236.516Z" fill="white"/>
<path d="M232.087 146.213C233.623 145.064 235.033 143.749 236.235 142.289C236.839 141.566 237.394 140.802 237.869 140.007C238.356 139.216 238.77 138.391 239.086 137.539C239.413 136.691 239.576 135.798 239.645 134.919C239.713 134.041 239.74 133.174 239.671 132.295C239.584 130.527 239.071 128.77 238.489 126.869L238.649 126.766C239.382 127.447 240.033 128.238 240.512 129.143C241.029 130.029 241.367 131.029 241.557 132.06C241.759 133.094 241.72 134.174 241.508 135.201C241.287 136.227 240.934 137.212 240.489 138.132C240.048 139.056 239.515 139.92 238.915 140.722C238.31 141.52 237.637 142.258 236.926 142.943C236.208 143.619 235.448 144.247 234.657 144.821C233.866 145.399 233.049 145.928 232.182 146.38L232.083 146.217L232.087 146.213Z" fill="#FF5873"/>
<path d="M372.901 292.312C384.436 292.312 393.788 282.958 393.788 271.42C393.788 259.882 384.436 250.529 372.901 250.529C361.365 250.529 352.014 259.882 352.014 271.42C352.014 282.958 361.365 292.312 372.901 292.312Z" fill="white"/>
<path d="M228.795 170.416C229.209 171.481 229.589 172.549 230.011 173.607L231.228 176.77C231.437 177.291 231.677 177.805 231.92 178.31C232.152 178.82 232.35 179.333 232.494 179.869C232.646 180.398 232.764 180.942 232.886 181.478C232.996 182.037 233.102 182.546 233.239 183.151L233.098 183.28C232.517 183.006 232.045 182.535 231.677 182.067C231.293 181.588 230.992 181.079 230.722 180.558C230.164 179.516 230.046 178.337 229.78 177.227C229.654 176.668 229.525 176.109 229.411 175.55C229.301 174.987 229.198 174.424 229.099 173.861C228.924 172.732 228.734 171.606 228.616 170.466L228.802 170.42L228.795 170.416Z" fill="#FEB2A8"/>
<path d="M217.777 154.411L230.931 153.46V155.362L217.777 154.411Z" fill="#FEB2A8"/>
<path d="M292.101 201.445C292.101 201.445 288.623 194.859 296.367 198.707C304.111 202.556 293.398 205.248 292.101 201.445Z" fill="#FF5873"/>
<path d="M173.938 163.716C173.938 163.716 180.284 162.134 175.969 167.979C171.654 173.823 173.938 163.716 173.938 163.716Z" fill="#FF5873"/>
<path d="M436.801 268.614C438.626 269.279 440.393 270.036 442.138 270.831C443.887 271.622 445.598 272.466 447.305 273.321C449.004 274.192 450.689 275.074 452.354 276.002C453.186 276.459 454.019 276.922 454.84 277.402C455.665 277.873 456.49 278.348 457.304 278.839L454.38 279.36C455.996 277.143 457.676 274.972 459.383 272.827C461.106 270.694 462.843 268.568 464.656 266.503C466.462 264.435 468.318 262.4 470.241 260.419C472.169 258.446 474.138 256.499 476.282 254.689C475.066 257.214 473.678 259.609 472.249 261.971C470.815 264.328 469.31 266.633 467.759 268.899C466.215 271.173 464.592 273.386 462.957 275.588C461.307 277.778 459.623 279.946 457.885 282.067L456.589 283.645L454.962 282.588C454.163 282.071 453.377 281.535 452.593 280.999C451.806 280.466 451.023 279.923 450.248 279.375C448.689 278.284 447.153 277.154 445.632 276.006C444.115 274.846 442.606 273.675 441.135 272.447C439.66 271.222 438.204 269.964 436.808 268.614H436.801Z" fill="#FFBE58"/>
<path d="M594.354 199.205H573.722L594.354 207.883V199.205Z" fill="#03015F"/>
<path d="M268.96 517.831C268.66 517.53 268.458 517.196 268.261 516.876C268.044 516.523 267.858 516.215 267.569 515.998C267.143 515.675 266.656 515.637 266.052 515.675C266.014 515.675 265.957 515.678 265.888 515.682C265.36 515.701 265.116 515.736 265.006 515.766C264.858 515.933 264.618 516.002 264.394 515.926C264.098 515.823 263.942 515.5 264.044 515.199C264.39 514.199 265.075 513.29 266.192 512.344C266.375 512.188 266.573 512.043 266.766 511.891C267.329 511.465 267.858 511.066 268.063 510.492C268.219 510.054 268.143 509.572 268.055 509.244C267.614 507.64 267.177 507.75 266.995 507.803C266.352 507.971 265.71 508.891 265.466 509.237C264.945 509.982 264.535 510.864 264.246 511.853C263.835 513.264 263.721 514.857 263.9 516.713L262.763 516.823C262.569 514.819 262.699 513.089 263.147 511.534C263.47 510.423 263.934 509.431 264.527 508.583C265.082 507.788 265.778 506.94 266.698 506.697C267.835 506.396 268.66 507.153 269.15 508.94C269.34 509.636 269.333 510.302 269.135 510.868C268.816 511.769 268.089 512.317 267.451 512.8C267.272 512.937 267.093 513.07 266.926 513.211C266.386 513.667 265.964 514.108 265.652 514.545C265.717 514.545 265.782 514.542 265.846 514.538C265.903 514.538 265.945 514.538 265.976 514.534C266.679 514.488 267.5 514.519 268.253 515.085C268.713 515.435 268.987 515.884 269.23 516.279C269.397 516.553 269.557 516.815 269.762 517.021L268.956 517.827L268.96 517.831Z" fill="#FF5873"/>
<path d="M202.103 516.409L201.072 515.918C201.802 514.378 203.635 513.739 205.11 513.8C206.433 513.849 207.653 514.313 208.839 514.762L209.288 514.933C209.569 515.036 209.816 515.123 210.025 515.104C210.162 515.093 210.265 515.017 210.276 514.979C210.288 514.929 210.2 514.777 210.025 514.671C209.9 514.595 209.74 514.53 209.577 514.465C209.391 514.393 209.2 514.317 209.007 514.203C208.258 513.773 207.767 512.933 207.76 512.066C207.752 511.199 208.227 510.355 208.972 509.91C210.155 509.206 211.596 509.629 212.497 510.362C213.367 511.07 213.892 512.047 214.401 513.07L213.379 513.576C212.915 512.636 212.474 511.811 211.778 511.248C211.204 510.781 210.265 510.469 209.558 510.891C209.162 511.127 208.896 511.595 208.9 512.058C208.9 512.519 209.174 512.982 209.573 513.214C209.695 513.287 209.843 513.344 209.995 513.405C210.185 513.481 210.406 513.568 210.611 513.694C211.105 513.994 211.535 514.587 211.379 515.241C211.25 515.781 210.729 516.192 210.109 516.241C209.668 516.279 209.276 516.146 208.885 516.002L208.429 515.831C207.281 515.397 206.197 514.983 205.064 514.941C203.954 514.895 202.608 515.336 202.099 516.409H202.103Z" fill="#FF5873"/>
<path d="M245.541 319.132L244.023 319.224L254.812 498.742L256.33 498.651L245.541 319.132Z" fill="#03015F"/>
<path d="M445.514 478.851H321.911V480.752H445.514V478.851Z" fill="white"/>
<path d="M447.249 499.092H318.133V500.993H447.249V499.092Z" fill="white"/>
<path d="M400.821 377.702L400.806 375.801C401.475 375.797 511.407 374.896 512.521 374.884L512.536 376.786C511.426 376.793 401.49 377.698 400.821 377.702Z" fill="white"/>
<path d="M512.507 329.162L510.606 329.17L510.794 376.017L512.695 376.01L512.507 329.162Z" fill="white"/>
<path d="M405.311 370.032H403.41V379.28H405.311V370.032Z" fill="white"/>
<path d="M436.584 350.263H435.063V359.511H436.584V350.263Z" fill="white"/>
<path d="M468.747 356.149H467.227V365.397H468.747V356.149Z" fill="white"/>
<path d="M500.842 330.786H499.321V340.034H500.842V330.786Z" fill="white"/>
</g>
<defs>
<clipPath id="clip0_103_247">
<rect width="713" height="528.603" fill="white"/>
</clipPath>
</defs>
</svg>
