<svg width="44" height="48" viewBox="0 0 44 48" fill="none" xmlns="http://www.w3.org/2000/svg">
<mask id="mask0_708_2192" style="mask-type:luminance" maskUnits="userSpaceOnUse" x="0" y="0" width="44" height="48">
<path d="M24.6325 -2.12034e-06H4.43378C1.98576 -2.12034e-06 0 1.98508 0 4.43378V31.5792V37.8946V43.5669C0 46.0149 1.98576 48 4.43378 48C9.31831 48 13.6072 44.7533 14.9318 40.0515L18.2725 28.1911C18.3862 27.7884 18.083 27.3884 17.6647 27.3884H9.17551C8.72002 27.3884 8.41477 26.9214 8.59616 26.5045L16.4106 8.58938C16.5114 8.35927 16.7382 8.21036 16.99 8.21036H26.6785C27.1333 8.21036 27.4392 8.67736 27.2565 9.09428L22.5709 19.8386C22.3889 20.2555 22.6948 20.7225 23.1496 20.7225H31.9874C32.5444 20.7225 32.8286 21.3912 32.4422 21.7926L18.973 35.7545C18.1994 36.5565 18.7679 37.8946 19.882 37.8946H24.6325C35.096 37.8946 43.5798 29.4121 43.5798 18.9473C43.5798 8.48312 35.096 -2.12034e-06 24.6325 -2.12034e-06Z" fill="white"/>
</mask>
<g mask="url(#mask0_708_2192)">
<path d="M24.6325 -2.12034e-06H4.43378C1.98576 -2.12034e-06 0 1.98508 0 4.43378V31.5792V37.8946V43.5669C0 46.0149 1.98576 48 4.43378 48C9.31831 48 13.6072 44.7533 14.9318 40.0515L18.2725 28.1911C18.3862 27.7884 18.083 27.3884 17.6647 27.3884H9.17551C8.72002 27.3884 8.41477 26.9214 8.59616 26.5045L16.4106 8.58938C16.5114 8.35927 16.7382 8.21036 16.99 8.21036H26.6785C27.1333 8.21036 27.4392 8.67736 27.2565 9.09428L22.5709 19.8386C22.3889 20.2555 22.6948 20.7225 23.1496 20.7225H31.9874C32.5444 20.7225 32.8286 21.3912 32.4422 21.7926L18.973 35.7545C18.1994 36.5565 18.7679 37.8946 19.882 37.8946H24.6325C35.096 37.8946 43.5798 29.4121 43.5798 18.9473C43.5798 8.48312 35.096 -2.12034e-06 24.6325 -2.12034e-06Z" fill="white"/>
</g>
</svg>
