<svg width="54" height="44" viewBox="0 0 54 44" fill="none" xmlns="http://www.w3.org/2000/svg">
<path d="M30.566 2.0452L26.8525 5.75866L42.4533 21.3594C44.7149 23.621 48.4004 24.0538 50.8714 22.0295C53.7193 19.7051 53.8729 15.496 51.3391 12.9622L40.422 2.0452C37.6998 -0.677075 33.2883 -0.677075 30.566 2.0452Z" fill="#00859B"/>
<path d="M42.6979 21.5967L26.8528 5.75168L20.2566 12.348C17.5343 15.0702 17.5343 19.4817 20.2566 22.204L31.1736 33.121C33.5608 35.5082 33.5608 39.3753 31.1736 41.7625L35.4943 37.4418L47.0186 25.9175L51.3394 21.5967C48.9521 23.9839 45.0851 23.9839 42.6979 21.5967Z" fill="#00C689"/>
<path d="M13.2831 2.0452L2.97335 12.3549C0.251072 15.0772 0.251072 19.4887 2.97335 22.211L22.2875 41.5252C24.5491 43.7868 28.2347 44.2195 30.7057 42.1953C33.5536 39.8709 33.7071 35.6618 31.1733 33.128L20.2563 22.211C17.534 19.4887 17.534 15.0772 20.2563 12.3549L26.8526 5.75866L23.1391 2.0452C20.4169 -0.677075 16.0054 -0.677075 13.2831 2.0452ZM9.10894 19.4817C8.10379 20.4869 6.47042 20.4869 5.46528 19.4817C4.46013 18.4766 4.46013 16.8432 5.46528 15.8381C6.47042 14.8329 8.10379 14.8329 9.10894 15.8381C10.1141 16.8432 10.1141 18.4766 9.10894 19.4817Z" fill="#00ED65"/>
</svg>
